<svg width="24" height="24" viewBox="0 0 24 24" fill="none" xmlns="http://www.w3.org/2000/svg">
<path d="M16.051 12.616C16.1171 12.4133 16.2462 12.2371 16.4194 12.113C16.5927 11.9888 16.8012 11.9233 17.0143 11.926C17.2275 11.9287 17.4342 11.9994 17.6043 12.1279C17.7744 12.2563 17.899 12.4357 17.96 12.64L18.697 14.092C18.7687 14.2331 18.8729 14.3552 19.001 14.4483C19.1292 14.5413 19.2776 14.6025 19.434 14.627L21.068 14.883C21.2784 14.8838 21.4832 14.951 21.6532 15.0749C21.8232 15.1989 21.9498 15.3733 22.015 15.5734C22.0801 15.7735 22.0805 15.989 22.016 16.1893C21.9516 16.3896 21.8256 16.5644 21.656 16.689L20.484 17.857C20.3718 17.9687 20.2877 18.1055 20.2387 18.256C20.1896 18.4066 20.1771 18.5666 20.202 18.723L20.461 20.336C20.5322 20.5382 20.5366 20.7579 20.4735 20.9627C20.4104 21.1676 20.2832 21.3468 20.1105 21.4738C19.9379 21.6009 19.729 21.6691 19.5146 21.6684C19.3003 21.6677 19.0918 21.5981 18.92 21.47L17.455 20.72C17.3139 20.6477 17.1576 20.61 16.999 20.61C16.8404 20.61 16.6841 20.6477 16.543 20.72L15.078 21.47C14.9062 21.5971 14.6981 21.6658 14.4844 21.666C14.2707 21.6663 14.0625 21.598 13.8904 21.4713C13.7183 21.3446 13.5913 21.1661 13.5281 20.962C13.4648 20.7578 13.4687 20.5388 13.539 20.337L13.797 18.724C13.8219 18.5676 13.8093 18.4076 13.7603 18.257C13.7113 18.1065 13.6272 17.9697 13.515 17.858L12.359 16.705C12.1836 16.5835 12.0517 16.4091 11.9825 16.2074C11.9133 16.0056 11.9105 15.787 11.9744 15.5835C12.0383 15.3799 12.1656 15.2022 12.3377 15.0762C12.5098 14.9501 12.7177 14.8825 12.931 14.883L14.564 14.627C14.7204 14.6025 14.8688 14.5413 14.9969 14.4483C15.1251 14.3552 15.2293 14.2331 15.301 14.092L16.051 12.616Z" stroke="#131314" stroke-width="1.5" stroke-linecap="round" stroke-linejoin="round"/>
<path d="M8 15H7C5.93913 15 4.92172 15.4214 4.17157 16.1716C3.42143 16.9217 3 17.9391 3 19V21" stroke="#131314" stroke-width="1.5" stroke-linecap="round" stroke-linejoin="round"/>
<path d="M10 11C12.2091 11 14 9.20914 14 7C14 4.79086 12.2091 3 10 3C7.79086 3 6 4.79086 6 7C6 9.20914 7.79086 11 10 11Z" stroke="#131314" stroke-width="1.5" stroke-linecap="round" stroke-linejoin="round"/>
</svg>
