<svg width="20" height="20" viewBox="0 0 20 20" fill="none" xmlns="http://www.w3.org/2000/svg">
<path d="M10 1.5C8.31886 1.5 6.67516 1.99863 5.27734 2.93262C3.87973 3.86655 2.79078 5.19411 2.14746 6.74707C1.50413 8.30021 1.33514 10.0094 1.66309 11.6582C1.99106 13.307 2.80051 14.822 3.98926 16.0107C5.178 17.1995 6.69296 18.0089 8.3418 18.3369C9.9906 18.6649 11.6998 18.4959 13.2529 17.8525C14.8059 17.2092 16.1335 16.1203 17.0674 14.7227C18.0014 13.3248 18.5 11.6811 18.5 10H20C20 11.9778 19.4133 13.9112 18.3145 15.5557C17.2157 17.2001 15.6543 18.4824 13.8271 19.2393C11.9999 19.9961 9.98864 20.1935 8.04883 19.8076C6.10914 19.4217 4.32716 18.4697 2.92871 17.0713C1.53026 15.6728 0.578274 13.8909 0.192383 11.9512C-0.193469 10.0114 0.00386598 8.00011 0.760742 6.17285C1.51761 4.34567 2.79992 2.78434 4.44434 1.68555C6.08883 0.586733 8.02219 3.53481e-07 10 0V1.5Z" fill="#131314"/>
</svg>
