<svg width="24" height="24" viewBox="0 0 24 24" fill="currentColor" xmlns="http://www.w3.org/2000/svg">
<path d="M2.47003 2.47001C2.61065 2.32956 2.80128 2.25067 3.00003 2.25067C3.19878 2.25067 3.3894 2.32956 3.53003 2.47001L11.937 10.877C12.0951 10.8682 12.2532 10.8928 12.4011 10.9493C12.549 11.0058 12.6833 11.0928 12.7953 11.2048C12.9072 11.3167 12.9943 11.451 13.0508 11.5989C13.1072 11.7468 13.1319 11.9049 13.123 12.063L14.585 13.524C14.9225 12.9509 15.0601 12.282 14.9761 11.6222C14.8921 10.9624 14.5913 10.3493 14.121 9.87901C14.0514 9.80934 13.9961 9.72664 13.9584 9.63562C13.9207 9.54459 13.9013 9.44703 13.9013 9.34851C13.9013 9.24999 13.9207 9.15243 13.9584 9.06141C13.9961 8.97038 14.0514 8.88768 14.121 8.81801C14.1907 8.74834 14.2734 8.69308 14.3644 8.65538C14.4554 8.61768 14.553 8.59827 14.6515 8.59827C14.7501 8.59827 14.8476 8.61768 14.9386 8.65538C15.0297 8.69308 15.1124 8.74834 15.182 8.81801C15.9341 9.57011 16.3955 10.5642 16.4844 11.6241C16.5734 12.6839 16.2842 13.7411 15.668 14.608L16.74 15.68C17.6363 14.5254 18.0803 13.0834 17.9888 11.6246C17.8973 10.1658 17.2766 8.79057 16.243 7.75701C16.1105 7.61484 16.0384 7.42679 16.0419 7.23249C16.0453 7.03819 16.124 6.8528 16.2614 6.71539C16.3988 6.57798 16.5842 6.49926 16.7785 6.49584C16.9728 6.49241 17.1609 6.56453 17.303 6.69701C18.6178 8.01169 19.3974 9.76781 19.4908 11.6248C19.5841 13.4817 18.9844 15.3072 17.808 16.747L18.872 17.812C20.3297 16.0885 21.0865 13.8802 20.9924 11.6249C20.8983 9.36967 19.9602 7.23209 18.364 5.63601C18.2315 5.49384 18.1594 5.30579 18.1629 5.11149C18.1663 4.91719 18.245 4.7318 18.3824 4.59439C18.5198 4.45698 18.7052 4.37826 18.8995 4.37484C19.0938 4.37141 19.2819 4.44353 19.424 4.57601C23.347 8.49801 23.517 14.751 19.936 18.876L21.53 20.47C21.6037 20.5387 21.6628 20.6215 21.7038 20.7135C21.7448 20.8055 21.7668 20.9048 21.7686 21.0055C21.7704 21.1062 21.7519 21.2062 21.7142 21.2996C21.6764 21.393 21.6203 21.4778 21.5491 21.549C21.4778 21.6203 21.393 21.6764 21.2996 21.7141C21.2062 21.7519 21.1062 21.7704 21.0055 21.7686C20.9048 21.7668 20.8055 21.7448 20.7135 21.7038C20.6215 21.6628 20.5387 21.6037 20.47 21.53L18.364 19.425L16.243 17.303L11.537 12.597C11.4898 12.5603 11.4472 12.5179 11.41 12.471L2.47003 3.53001C2.40033 3.46036 2.34505 3.37766 2.30732 3.28663C2.2696 3.19561 2.25019 3.09804 2.25019 2.99951C2.25019 2.90098 2.2696 2.80341 2.30732 2.71239C2.34505 2.62136 2.40033 2.53966 2.47003 2.47001ZM3.65903 6.89201C3.74679 6.93688 3.82485 6.9986 3.88875 7.07366C3.95264 7.14872 4.00111 7.23563 4.03139 7.32944C4.06166 7.42324 4.07315 7.52209 4.0652 7.62034C4.05724 7.71859 4.03 7.8143 3.98503 7.90201C3.11942 9.59659 2.81294 11.5218 3.10956 13.4014C3.40617 15.281 4.29065 17.0183 5.63603 18.364C5.70971 18.4327 5.76882 18.5155 5.80981 18.6075C5.8508 18.6995 5.87284 18.7988 5.87462 18.8995C5.8764 19.0002 5.85787 19.1002 5.82015 19.1936C5.78243 19.287 5.72629 19.3718 5.65507 19.4431C5.58385 19.5143 5.49901 19.5704 5.40563 19.6081C5.31224 19.6459 5.21221 19.6644 5.11151 19.6626C5.0108 19.6608 4.91149 19.6388 4.81949 19.5978C4.72749 19.5568 4.64469 19.4977 4.57603 19.424C1.27003 16.12 0.630028 11.165 2.64803 7.21901C2.69289 7.13125 2.75462 7.05318 2.82968 6.98929C2.90473 6.9254 2.99165 6.87693 3.08545 6.84665C3.17926 6.81638 3.27811 6.80489 3.37635 6.81284C3.4746 6.8208 3.57032 6.84804 3.65803 6.89301L3.65903 6.89201ZM5.84003 9.13401C5.93341 9.16539 6.01969 9.21485 6.09395 9.27958C6.1682 9.3443 6.22898 9.42302 6.27281 9.51124C6.31665 9.59946 6.34267 9.69545 6.3494 9.79373C6.35612 9.892 6.34343 9.99064 6.31203 10.084C5.95516 11.1432 5.90126 12.2811 6.15639 13.3693C6.41153 14.4575 6.96556 15.4528 7.75603 16.243C7.88851 16.3852 7.96063 16.5732 7.9572 16.7675C7.95377 16.9618 7.87506 17.1472 7.73765 17.2846C7.60024 17.422 7.41485 17.5008 7.22055 17.5042C7.02625 17.5076 6.8382 17.4355 6.69603 17.303C5.70809 16.3155 5.01556 15.0717 4.69648 13.7118C4.37739 12.3519 4.44442 10.9299 4.89003 9.60601C4.9214 9.51263 4.97087 9.42635 5.03559 9.35209C5.10032 9.27784 5.17904 9.21706 5.26726 9.17322C5.35547 9.12939 5.45146 9.10337 5.54974 9.09664C5.64802 9.08992 5.74666 9.10261 5.84003 9.13401ZM8.18103 11.787C8.27861 11.7732 8.37796 11.7787 8.4734 11.8033C8.56884 11.8279 8.6585 11.871 8.73726 11.9303C8.81601 11.9895 8.88232 12.0637 8.93238 12.1486C8.98245 12.2335 9.01529 12.3274 9.02903 12.425C9.11703 13.045 9.39903 13.643 9.87803 14.121C10.0187 14.2617 10.0978 14.4525 10.0978 14.6515C10.0978 14.8505 10.0187 15.0413 9.87803 15.182C9.73733 15.3227 9.5465 15.4018 9.34753 15.4018C9.14855 15.4018 8.95773 15.3227 8.81703 15.182C8.12737 14.4942 7.68051 13.6004 7.54403 12.636C7.51606 12.4391 7.56746 12.2391 7.68692 12.0801C7.80637 11.9211 7.98411 11.816 8.18103 11.788V11.787Z" fill="currentColor"/>
</svg>
