<svg width="24" height="24" viewBox="0 0 24 24" fill="currentColor" xmlns="http://www.w3.org/2000/svg">
<path d="M9.59401 3.94C9.68401 3.398 10.154 3 10.704 3H13.297C13.847 3 14.317 3.398 14.407 3.94L14.62 5.221C14.683 5.595 14.933 5.907 15.265 6.091C15.339 6.131 15.412 6.174 15.485 6.218C15.81 6.414 16.205 6.475 16.56 6.342L17.777 5.886C18.0264 5.79221 18.301 5.78998 18.5519 5.87971C18.8028 5.96945 19.0137 6.14531 19.147 6.376L20.443 8.623C20.5761 8.8537 20.623 9.12413 20.5754 9.38617C20.5277 9.6482 20.3887 9.88485 20.183 10.054L19.18 10.881C18.887 11.122 18.742 11.494 18.75 11.873C18.7514 11.958 18.7514 12.043 18.75 12.128C18.742 12.506 18.887 12.878 19.18 13.119L20.184 13.946C20.608 14.296 20.718 14.901 20.444 15.376L19.146 17.623C19.0129 17.8536 18.8022 18.0296 18.5515 18.1195C18.3008 18.2094 18.0264 18.2074 17.777 18.114L16.56 17.658C16.205 17.525 15.81 17.586 15.484 17.782C15.4115 17.8261 15.3382 17.8688 15.264 17.91C14.933 18.093 14.683 18.405 14.62 18.779L14.407 20.06C14.317 20.603 13.847 21 13.297 21H10.703C10.153 21 9.68401 20.602 9.59301 20.06L9.38001 18.779C9.31801 18.405 9.06801 18.093 8.73601 17.909C8.66186 17.8681 8.58851 17.8258 8.51601 17.782C8.19101 17.586 7.79601 17.525 7.44001 17.658L6.22301 18.114C5.97374 18.2075 5.69937 18.2096 5.44871 18.1199C5.19804 18.0302 4.98732 17.8545 4.85401 17.624L3.55701 15.377C3.42395 15.1463 3.37705 14.8759 3.42466 14.6138C3.47227 14.3518 3.6113 14.1152 3.81701 13.946L4.82101 13.119C5.11301 12.879 5.25801 12.506 5.25101 12.128C5.24944 12.043 5.24944 11.958 5.25101 11.873C5.25801 11.493 5.11301 11.122 4.82101 10.881L3.81701 10.054C3.61155 9.88489 3.47268 9.64843 3.42508 9.38662C3.37748 9.12481 3.42422 8.8546 3.55701 8.624L4.85401 6.377C4.98719 6.14614 5.19802 5.97006 5.44892 5.88014C5.69982 5.79021 5.9745 5.79229 6.22401 5.886L7.44001 6.342C7.79601 6.475 8.19101 6.414 8.51601 6.218C8.58801 6.174 8.66201 6.132 8.73601 6.09C9.06801 5.907 9.31801 5.595 9.38001 5.221L9.59401 3.94Z" stroke="currentColor" stroke-width="1.5" stroke-linecap="round" stroke-linejoin="round"/>
<path d="M15 12C15 12.7956 14.6839 13.5587 14.1213 14.1213C13.5587 14.6839 12.7956 15 12 15C11.2044 15 10.4413 14.6839 9.87868 14.1213C9.31607 13.5587 9 12.7956 9 12C9 11.2044 9.31607 10.4413 9.87868 9.87868C10.4413 9.31607 11.2044 9 12 9C12.7956 9 13.5587 9.31607 14.1213 9.87868C14.6839 10.4413 15 11.2044 15 12Z" stroke="currentColor" stroke-width="1.5" stroke-linecap="round" stroke-linejoin="round"/>
</svg>
