<svg width="24" height="24" viewBox="0 0 24 24" fill="none" xmlns="http://www.w3.org/2000/svg">
<path d="M10.5 12C10.5 12.5304 10.7107 13.0391 11.0858 13.4142C11.4609 13.7893 11.9696 14 12.5 14C13.0304 14 13.5391 13.7893 13.9142 13.4142C14.2893 13.0391 14.5 12.5304 14.5 12C14.5 11.4696 14.2893 10.9609 13.9142 10.5858C13.5391 10.2107 13.0304 10 12.5 10C11.9696 10 11.4609 10.2107 11.0858 10.5858C10.7107 10.9609 10.5 11.4696 10.5 12Z" stroke="#131314" stroke-width="1.5" stroke-linecap="round" stroke-linejoin="round"/>
<path d="M8.5 20V19C8.5 18.4696 8.71071 17.9609 9.08579 17.5858C9.46086 17.2107 9.96957 17 10.5 17H14.5C15.0304 17 15.5391 17.2107 15.9142 17.5858C16.2893 17.9609 16.5 18.4696 16.5 19V20" stroke="#131314" stroke-width="1.5" stroke-linecap="round" stroke-linejoin="round"/>
<path d="M15 7C15 7.53043 15.2107 8.03914 15.5858 8.41421C15.9609 8.78929 16.4696 9 17 9C17.5304 9 18.0391 8.78929 18.4142 8.41421C18.7893 8.03914 19 7.53043 19 7C19 6.46957 18.7893 5.96086 18.4142 5.58579C18.0391 5.21071 17.5304 5 17 5C16.4696 5 15.9609 5.21071 15.5858 5.58579C15.2107 5.96086 15 6.46957 15 7Z" stroke="#131314" stroke-width="1.5" stroke-linecap="round" stroke-linejoin="round"/>
<path d="M17 12H19C19.5304 12 20.0391 12.2107 20.4142 12.5858C20.7893 12.9609 21 13.4696 21 14V15" stroke="#131314" stroke-width="1.5" stroke-linecap="round" stroke-linejoin="round"/>
<path d="M6 7C6 7.53043 6.21071 8.03914 6.58579 8.41421C6.96086 8.78929 7.46957 9 8 9C8.53043 9 9.03914 8.78929 9.41421 8.41421C9.78929 8.03914 10 7.53043 10 7C10 6.46957 9.78929 5.96086 9.41421 5.58579C9.03914 5.21071 8.53043 5 8 5C7.46957 5 6.96086 5.21071 6.58579 5.58579C6.21071 5.96086 6 6.46957 6 7Z" stroke="#131314" stroke-width="1.5" stroke-linecap="round" stroke-linejoin="round"/>
<path d="M4 15V14C4 13.4696 4.21071 12.9609 4.58579 12.5858C4.96086 12.2107 5.46957 12 6 12H8" stroke="#131314" stroke-width="1.5" stroke-linecap="round" stroke-linejoin="round"/>
</svg>
