<svg width="24" height="24" viewBox="0 0 24 24" fill="none" xmlns="http://www.w3.org/2000/svg">
<path fill-rule="evenodd" clip-rule="evenodd" d="M11.47 2.47001C11.6106 2.32956 11.8012 2.25067 12 2.25067C12.1988 2.25067 12.3894 2.32956 12.53 2.47001L17.03 6.97001C17.1625 7.11219 17.2346 7.30023 17.2312 7.49453C17.2277 7.68884 17.149 7.87422 17.0116 8.01163C16.8742 8.14905 16.6888 8.22776 16.4945 8.23119C16.3002 8.23461 16.1122 8.16249 15.97 8.03001L12.75 4.81001V16.5C12.75 16.6989 12.671 16.8897 12.5303 17.0303C12.3897 17.171 12.1989 17.25 12 17.25C11.8011 17.25 11.6103 17.171 11.4697 17.0303C11.329 16.8897 11.25 16.6989 11.25 16.5V4.81001L8.03 8.03001C7.88783 8.16249 7.69978 8.23461 7.50548 8.23119C7.31118 8.22776 7.12579 8.14905 6.98838 8.01163C6.85097 7.87422 6.77225 7.68884 6.76883 7.49453C6.7654 7.30023 6.83752 7.11219 6.97 6.97001L11.47 2.47001ZM3 15.75C3.19891 15.75 3.38968 15.829 3.53033 15.9697C3.67098 16.1103 3.75 16.3011 3.75 16.5V18.75C3.75 19.1478 3.90804 19.5294 4.18934 19.8107C4.47064 20.092 4.85218 20.25 5.25 20.25H18.75C19.1478 20.25 19.5294 20.092 19.8107 19.8107C20.092 19.5294 20.25 19.1478 20.25 18.75V16.5C20.25 16.3011 20.329 16.1103 20.4697 15.9697C20.6103 15.829 20.8011 15.75 21 15.75C21.1989 15.75 21.3897 15.829 21.5303 15.9697C21.671 16.1103 21.75 16.3011 21.75 16.5V18.75C21.75 19.5457 21.4339 20.3087 20.8713 20.8713C20.3087 21.4339 19.5456 21.75 18.75 21.75H5.25C4.45435 21.75 3.69129 21.4339 3.12868 20.8713C2.56607 20.3087 2.25 19.5457 2.25 18.75V16.5C2.25 16.3011 2.32902 16.1103 2.46967 15.9697C2.61032 15.829 2.80109 15.75 3 15.75Z" fill="black"/>
</svg>
