<svg width="24" height="24" viewBox="0 0 24 24" fill="none" xmlns="http://www.w3.org/2000/svg">
<path d="M15 19.128C15.853 19.3757 16.7368 19.5009 17.625 19.5C19.0534 19.5021 20.4632 19.1764 21.746 18.548C21.7839 17.6517 21.5286 16.7675 21.0188 16.0293C20.5089 15.2912 19.7724 14.7394 18.9207 14.4575C18.069 14.1757 17.1487 14.1791 16.2992 14.4674C15.4496 14.7557 14.7172 15.313 14.213 16.055M15 19.128V19.125C15 18.012 14.714 16.965 14.213 16.055M15 19.128V19.234C13.0755 20.3931 10.8706 21.0038 8.62399 21C6.29299 21 4.11199 20.355 2.24999 19.234L2.24899 19.125C2.24823 17.7095 2.71861 16.3339 3.58598 15.2153C4.45335 14.0966 5.66837 13.2984 7.03948 12.9466C8.4106 12.5948 9.85982 12.7093 11.1587 13.2721C12.4575 13.8349 13.5321 14.814 14.213 16.055M12 6.375C12 7.27011 11.6444 8.12855 11.0115 8.76149C10.3785 9.39442 9.5201 9.75 8.62499 9.75C7.72989 9.75 6.87144 9.39442 6.23851 8.76149C5.60557 8.12855 5.24999 7.27011 5.24999 6.375C5.24999 5.47989 5.60557 4.62145 6.23851 3.98851C6.87144 3.35558 7.72989 3 8.62499 3C9.5201 3 10.3785 3.35558 11.0115 3.98851C11.6444 4.62145 12 5.47989 12 6.375ZM20.25 8.625C20.25 9.32119 19.9734 9.98887 19.4811 10.4812C18.9889 10.9734 18.3212 11.25 17.625 11.25C16.9288 11.25 16.2611 10.9734 15.7688 10.4812C15.2766 9.98887 15 9.32119 15 8.625C15 7.92881 15.2766 7.26113 15.7688 6.76884C16.2611 6.27656 16.9288 6 17.625 6C18.3212 6 18.9889 6.27656 19.4811 6.76884C19.9734 7.26113 20.25 7.92881 20.25 8.625Z" stroke="black" stroke-width="1.5" stroke-linecap="round" stroke-linejoin="round"/>
</svg>
